<svg width="118" height="40" viewBox="0 0 118 40" fill="none" xmlns="http://www.w3.org/2000/svg">
<g id="Group">
<path id="Vector" d="M110.415 29.1923C109.329 30.3462 108.011 31.2692 106.498 31.9231C104.986 32.5769 103.318 32.8846 101.495 32.8846C99.6722 32.8846 98.0046 32.5769 96.492 31.9231C94.9795 31.2692 93.6609 30.3846 92.5749 29.1923C91.489 28.0385 90.6358 26.6154 90.0153 25.0385C89.7826 24.4231 89.5886 23.7693 89.4335 23.077H103.977L107.119 20.0001L103.977 16.9232H89.3947C89.5499 16.1539 89.7438 15.4232 90.0153 14.7309C90.6358 13.1539 91.489 11.7693 92.5749 10.6155C93.6609 9.46167 94.9795 8.53859 96.492 7.88475C98.0046 7.23091 99.711 6.92322 101.573 6.92322C103.434 6.92322 105.141 7.23091 106.653 7.88475C108.166 8.53859 109.484 9.42321 110.57 10.6155C111.23 11.3078 111.773 12.1155 112.238 12.9616L117.784 7.46167C117.28 6.80783 116.737 6.19245 116.116 5.61553C114.255 3.84631 112.083 2.4617 109.639 1.50017C107.196 0.538634 104.443 0.0386353 101.534 0.0386353C98.6251 0.0386353 95.9103 0.538634 93.4282 1.50017C90.946 2.4617 88.7742 3.88477 86.9514 5.61553C85.1286 7.38476 83.6936 9.50012 82.6853 11.8847C81.7545 14.1155 81.2503 16.577 81.1727 19.2308H85.7879V20.7693H81.2115C81.2891 23.3077 81.7933 25.6924 82.6853 27.9231C83.6548 30.3846 85.0898 32.5385 86.9126 34.3077C88.7354 36.1154 90.9073 37.5384 93.3506 38.5C95.8327 39.5 98.5863 40 101.534 40C104.52 40 107.274 39.5 109.717 38.5C112.199 37.5 114.371 36.0769 116.155 34.3077C116.737 33.7308 117.241 33.1538 117.706 32.5L112.083 26.9231C111.579 27.7693 111.036 28.5385 110.415 29.1923Z" fill="#56AA36"/>
<path id="Vector_2" d="M89.2397 23.1152C89.0845 23.8076 88.8906 24.4614 88.6579 25.0768C88.0374 26.6537 87.1842 28.0383 86.0983 29.1921C85.0123 30.346 83.6937 31.269 82.1812 31.9229C80.6686 32.5767 79.001 32.8844 77.1782 32.8844C75.3554 32.8844 73.6877 32.5767 72.1752 31.9229C70.6626 31.269 69.344 30.3844 68.2581 29.1921C67.1721 28.0383 66.3189 26.6152 65.6984 25.0383C65.0779 23.4614 64.8064 21.7306 64.8064 19.8845C64.8064 17.9999 65.1167 16.2691 65.6984 14.6922C66.3189 13.1153 67.1721 11.7307 68.2581 10.5769C69.344 9.42302 70.6626 8.49995 72.1752 7.84611C73.6877 7.19226 75.3941 6.88457 77.2557 6.88457C79.1173 6.88457 80.8238 7.19226 82.3363 7.84611C83.8488 8.49995 85.1675 9.38456 86.2534 10.5769C87.3393 11.7307 88.1925 13.1538 88.7743 14.7307C89.007 15.423 89.2009 16.1537 89.356 16.8845H97.3841C97.1514 15.1153 96.7248 13.423 96.0655 11.8461C95.0571 9.42302 93.6222 7.30765 91.7606 5.57689C89.899 3.80767 87.7271 2.42306 85.2838 1.46153C82.8405 0.499992 80.0869 0 77.1782 0C74.2694 0 71.5546 0.499992 69.0725 1.46153C66.5904 2.42306 64.4186 3.84613 62.5958 5.57689C60.773 7.34611 59.338 9.46148 58.3296 11.8461C57.3213 14.2691 56.8171 16.9614 56.8171 19.846C56.8171 21.0383 56.8947 22.1922 57.0886 23.3076C56.3129 22.0768 55.3046 21.0383 54.0247 20.2691C52.9776 19.6153 51.7753 19.0768 50.4567 18.6537L49.7974 18.4614L50.4179 18.1922C52.1243 17.4614 53.5205 16.4999 54.4901 15.3076C55.576 13.9615 56.119 12.3076 56.119 10.3846C56.119 8.76918 55.8087 7.34611 55.1882 6.19227C54.5677 4.99997 53.6757 3.99997 52.5122 3.23075C51.3875 2.42306 49.9913 1.84614 48.44 1.42307C46.8499 1.03845 45.1046 0.807684 43.2043 0.807684H0V8.38456H10.5102V39.1151H18.0729V8.38456H28.4667V39.1151H43.9411C46.8111 39.1151 49.332 38.7305 51.5038 37.9613C53.6369 37.1921 55.3433 35.9998 56.5456 34.4229C57.7479 32.846 58.3296 30.769 58.3296 28.2691C58.3296 28.1537 58.3296 28.0768 58.3296 27.9998C59.2992 30.3844 60.7342 32.5383 62.5182 34.269C64.341 36.0767 66.5128 37.4998 68.9562 38.4613C71.4383 39.4613 74.1919 39.9613 77.1394 39.9613C80.1257 39.9613 82.8793 39.4613 85.3226 38.4613C87.8047 37.4613 89.9765 36.0382 91.7606 34.269C93.5834 32.4613 95.0183 30.3075 95.9879 27.846C96.6084 26.346 97.0351 24.7306 97.2678 23.0768H89.2397V23.1152ZM35.9518 6.69227H42.4286C44.2126 6.69227 45.6864 7.11534 46.6947 7.92303C47.7419 8.76918 48.2848 9.96147 48.2848 11.4615C48.2848 12.4615 48.0521 13.3461 47.548 14.0768C47.0438 14.8076 46.3845 15.3845 45.4925 15.7691C44.6392 16.1538 43.5921 16.3461 42.3898 16.3461H35.9131V6.69227H35.9518ZM49.6034 30.7306C48.9829 31.6152 48.0909 32.269 46.9662 32.6921C45.8803 33.1152 44.6392 33.3075 43.2818 33.3075H35.9518V21.6537H43.2818C44.2902 21.6537 45.2598 21.7691 46.1518 21.9999C47.0438 22.2306 47.8194 22.5768 48.4787 22.9999C49.1381 23.4614 49.681 24.0383 50.0301 24.7691C50.4179 25.4998 50.573 26.346 50.573 27.346C50.573 28.6921 50.224 29.846 49.6034 30.7306Z" fill="#161616"/>
</g>
</svg>
