<svg width="28" height="30" viewBox="0 0 28 30" fill="none" xmlns="http://www.w3.org/2000/svg">
<g id="SVG">
<g id="Group">
<path id="Vector" d="M6.77689 5.25688C6.71409 5.03427 6.41454 4.80766 6.1833 4.80766H1.21481C0.767864 4.80766 0.405518 4.44543 0.405518 3.99837C0.405518 3.55132 0.767864 3.18909 1.21481 3.18909H6.1833C7.13179 3.18909 8.07671 3.90407 8.3345 4.81684L9.67672 9.56715C9.83016 9.52441 9.99181 9.49971 10.1599 9.49971H26.2126C26.7235 9.49971 27.2085 9.71163 27.5432 10.0811C27.8779 10.4506 28.0413 10.9541 27.991 11.4623L27.2423 19.051C27.1425 20.0625 26.2682 20.8547 25.2519 20.8547H12.7927C11.8401 20.8547 10.8993 20.1344 10.6507 19.215L9.08974 13.4428L6.77689 5.25688ZM12.2132 18.7926C12.2726 19.0123 12.5651 19.2361 12.7927 19.2361H25.252C25.4297 19.2361 25.6141 19.0689 25.6316 18.8921L26.3804 11.3033C26.386 11.2472 26.3733 11.2004 26.344 11.168C26.3145 11.1355 26.2692 11.1184 26.2127 11.1184H10.1599C10.1521 11.1184 10.1452 11.1187 10.1391 11.1192C10.1402 11.1252 10.1418 11.1319 10.1439 11.1394L12.2132 18.7926Z" fill="#56AA36"/>
<path id="Vector_2" d="M22.8896 21.7764C24.2778 21.7764 25.4069 22.9057 25.4069 24.2936C25.4069 25.6816 24.2778 26.8108 22.8896 26.8108C21.5017 26.8108 20.3724 25.6816 20.3724 24.2936C20.3724 22.9057 21.5017 21.7764 22.8896 21.7764ZM22.8896 25.1922C23.3852 25.1922 23.7883 24.7891 23.7883 24.2936C23.7883 23.7981 23.3852 23.395 22.8896 23.395C22.3941 23.395 21.991 23.7981 21.991 24.2936C21.991 24.7891 22.3941 25.1922 22.8896 25.1922Z" fill="#56AA36"/>
<path id="Vector_3" d="M14.9081 21.7764C16.296 21.7764 17.4253 22.9057 17.4253 24.2936C17.4253 25.6816 16.296 26.8108 14.9081 26.8108C13.52 26.8108 12.3909 25.6816 12.3909 24.2936C12.3909 22.9057 13.5199 21.7764 14.9081 21.7764ZM14.9081 25.1922C15.4036 25.1922 15.8067 24.7891 15.8067 24.2936C15.8067 23.7981 15.4036 23.395 14.9081 23.395C14.4126 23.395 14.0094 23.7981 14.0094 24.2936C14.0094 24.7891 14.4125 25.1922 14.9081 25.1922Z" fill="#56AA36"/>
<path id="Vector_4" d="M0.539526 9.76959H6.38184C6.67976 9.76959 6.92136 10.0111 6.92136 10.3091C6.92136 10.6072 6.67976 10.8486 6.38184 10.8486H0.539526C0.2416 10.8486 0 10.6072 0 10.3091C0 10.0111 0.2416 9.76959 0.539526 9.76959Z" fill="#56AA36"/>
<path id="Vector_5" d="M2.15928 12.281H7.35351C7.65144 12.281 7.89304 12.5225 7.89304 12.8205C7.89304 13.1185 7.65144 13.36 7.35351 13.36H2.15928C1.86135 13.36 1.61975 13.1185 1.61975 12.8205C1.61975 12.5225 1.86135 12.281 2.15928 12.281Z" fill="#56AA36"/>
<path id="Vector_6" d="M3.56296 14.7924H8.0011C8.29903 14.7924 8.54063 15.034 8.54063 15.332C8.54063 15.63 8.29903 15.8715 8.0011 15.8715H3.56296C3.26503 15.8715 3.02344 15.63 3.02344 15.332C3.02344 15.034 3.26503 14.7924 3.56296 14.7924Z" fill="#56AA36"/>
</g>
</g>
</svg>
