<svg width="30" height="30" viewBox="0 0 30 30" fill="none" xmlns="http://www.w3.org/2000/svg">
<g id="SVG">
<g id="Group">
<path id="Vector" d="M7.26092 4.56095C7.19364 4.32244 6.87269 4.07965 6.62493 4.07965H1.30155C0.822676 4.07965 0.434448 3.69154 0.434448 3.21255C0.434448 2.73357 0.822676 2.34546 1.30155 2.34546H6.62493C7.64117 2.34546 8.65359 3.11151 8.92979 4.08948L10.3679 9.1791C10.5323 9.13331 10.7055 9.10684 10.8856 9.10684H28.0849C28.6323 9.10684 29.152 9.3339 29.5106 9.72976C29.8692 10.1256 30.0442 10.6651 29.9903 11.2096L29.1882 19.3404C29.0812 20.4241 28.1445 21.2729 27.0556 21.2729H13.7064C12.6858 21.2729 11.6778 20.5012 11.4114 19.5161L9.73897 13.3316L7.26092 4.56095ZM13.0856 19.0635C13.1492 19.2989 13.4626 19.5387 13.7065 19.5387H27.0557C27.2461 19.5387 27.4437 19.3596 27.4624 19.1701L28.2647 11.0393C28.2707 10.9792 28.2571 10.929 28.2257 10.8943C28.1941 10.8595 28.1456 10.8411 28.085 10.8411H10.8856C10.8772 10.8411 10.8698 10.8415 10.8633 10.842C10.8645 10.8484 10.8662 10.8556 10.8684 10.8637L13.0856 19.0635Z" fill="white"/>
<path id="Vector_2" d="M24.5246 22.2605C26.0119 22.2605 27.2217 23.4704 27.2217 24.9575C27.2217 26.4446 26.0119 27.6545 24.5246 27.6545C23.0375 27.6545 21.8276 26.4446 21.8276 24.9575C21.8276 23.4704 23.0375 22.2605 24.5246 22.2605ZM24.5246 25.9203C25.0556 25.9203 25.4875 25.4884 25.4875 24.9575C25.4875 24.4266 25.0556 23.9947 24.5246 23.9947C23.9937 23.9947 23.5618 24.4266 23.5618 24.9575C23.5618 25.4884 23.9937 25.9203 24.5246 25.9203Z" fill="white"/>
<path id="Vector_3" d="M15.973 22.2605C17.4601 22.2605 18.67 23.4704 18.67 24.9575C18.67 26.4446 17.4601 27.6545 15.973 27.6545C14.4858 27.6545 13.276 26.4446 13.276 24.9575C13.276 23.4704 14.4857 22.2605 15.973 22.2605ZM15.973 25.9203C16.5039 25.9203 16.9358 25.4884 16.9358 24.9575C16.9358 24.4266 16.5039 23.9947 15.973 23.9947C15.4421 23.9947 15.0101 24.4266 15.0101 24.9575C15.0101 25.4884 15.442 25.9203 15.973 25.9203Z" fill="white"/>
<path id="Vector_4" d="M0.578064 9.396H6.83769C7.15689 9.396 7.41575 9.65474 7.41575 9.97406C7.41575 10.2934 7.15689 10.5521 6.83769 10.5521H0.578064C0.258857 10.5521 0 10.2934 0 9.97406C0 9.65474 0.258857 9.396 0.578064 9.396Z" fill="white"/>
<path id="Vector_5" d="M2.31354 12.0868H7.87878C8.19799 12.0868 8.45685 12.3455 8.45685 12.6648C8.45685 12.9841 8.19799 13.2429 7.87878 13.2429H2.31354C1.99433 13.2429 1.73547 12.9841 1.73547 12.6648C1.73547 12.3455 1.99433 12.0868 2.31354 12.0868Z" fill="white"/>
<path id="Vector_6" d="M3.8175 14.7776H8.57265C8.89186 14.7776 9.15072 15.0364 9.15072 15.3557C9.15072 15.675 8.89186 15.9338 8.57265 15.9338H3.8175C3.49829 15.9338 3.23944 15.675 3.23944 15.3557C3.23944 15.0364 3.49829 14.7776 3.8175 14.7776Z" fill="white"/>
</g>
</g>
</svg>
