<svg width="11" height="6" viewBox="0 0 11 6" fill="none" xmlns="http://www.w3.org/2000/svg">
<path id="Vector" d="M0.739014 0.556641C0.68042 0.626953 0.651123 0.695312 0.651123 0.761719C0.651123 0.828125 0.68042 0.892578 0.739014 0.955078L5.28003 5.90625C5.33472 5.96875 5.39136 6 5.44995 6C5.50854 6 5.56714 5.96875 5.62573 5.90625L10.1667 0.955078C10.2214 0.892578 10.2488 0.828125 10.2488 0.761719C10.2488 0.695312 10.2214 0.626953 10.1667 0.556641L9.73315 0.105469C9.67456 0.0351562 9.61499 0 9.55444 0C9.4939 0 9.43042 0.0351562 9.36401 0.105469L5.44995 4.34766L1.53589 0.105469C1.47339 0.0351562 1.41089 0 1.34839 0C1.28589 0 1.22729 0.0351562 1.17261 0.105469L0.739014 0.556641Z" fill="#56AA36"/>
</svg>
