<svg width="25" height="24" viewBox="0 0 25 24" fill="none" xmlns="http://www.w3.org/2000/svg">
<g id="SVG" clip-path="url(#clip0_39_480)">
<g id="Group">
<path id="Vector" d="M5.5 24H1.5C0.948 24 0.5 23.552 0.5 23V19C0.5 18.448 0.948 18 1.5 18H5.5C6.052 18 6.5 18.448 6.5 19V23C6.5 23.552 6.052 24 5.5 24Z" fill="white"/>
<path id="Vector_2" d="M5.5 15H1.5C0.948 15 0.5 14.552 0.5 14V10C0.5 9.448 0.948 9 1.5 9H5.5C6.052 9 6.5 9.448 6.5 10V14C6.5 14.552 6.052 15 5.5 15Z" fill="white"/>
<path id="Vector_3" d="M5.5 6H1.5C0.948 6 0.5 5.552 0.5 5V1C0.5 0.448 0.948 0 1.5 0H5.5C6.052 0 6.5 0.448 6.5 1V5C6.5 5.552 6.052 6 5.5 6Z" fill="white"/>
<path id="Vector_4" d="M14.5 24H10.5C9.948 24 9.5 23.552 9.5 23V19C9.5 18.448 9.948 18 10.5 18H14.5C15.052 18 15.5 18.448 15.5 19V23C15.5 23.552 15.052 24 14.5 24Z" fill="white"/>
<path id="Vector_5" d="M14.5 15H10.5C9.948 15 9.5 14.552 9.5 14V10C9.5 9.448 9.948 9 10.5 9H14.5C15.052 9 15.5 9.448 15.5 10V14C15.5 14.552 15.052 15 14.5 15Z" fill="white"/>
<path id="Vector_6" d="M14.5 6H10.5C9.948 6 9.5 5.552 9.5 5V1C9.5 0.448 9.948 0 10.5 0H14.5C15.052 0 15.5 0.448 15.5 1V5C15.5 5.552 15.052 6 14.5 6Z" fill="white"/>
<path id="Vector_7" d="M23.5 24H19.5C18.948 24 18.5 23.552 18.5 23V19C18.5 18.448 18.948 18 19.5 18H23.5C24.052 18 24.5 18.448 24.5 19V23C24.5 23.552 24.052 24 23.5 24Z" fill="white"/>
<path id="Vector_8" d="M23.5 15H19.5C18.948 15 18.5 14.552 18.5 14V10C18.5 9.448 18.948 9 19.5 9H23.5C24.052 9 24.5 9.448 24.5 10V14C24.5 14.552 24.052 15 23.5 15Z" fill="white"/>
<path id="Vector_9" d="M23.5 6H19.5C18.948 6 18.5 5.552 18.5 5V1C18.5 0.448 18.948 0 19.5 0H23.5C24.052 0 24.5 0.448 24.5 1V5C24.5 5.552 24.052 6 23.5 6Z" fill="white"/>
</g>
</g>
<defs>
<clipPath id="clip0_39_480">
<rect width="25" height="24" fill="white"/>
</clipPath>
</defs>
</svg>
