<svg width="16" height="16" viewBox="0 0 16 16" fill="none" xmlns="http://www.w3.org/2000/svg">
<g id="Button &#226;&#134;&#146; SVG" clip-path="url(#clip0_39_507)">
<g id="Group">
<path id="Vector" d="M7.04606 0C3.16097 0 0 3.16097 0 7.04606C0 10.9314 3.16097 14.0922 7.04606 14.0922C10.9314 14.0922 14.0922 10.9314 14.0922 7.04606C14.0922 3.16097 10.9314 0 7.04606 0ZM7.04606 12.7914C3.87816 12.7914 1.30082 10.214 1.30082 7.0461C1.30082 3.87818 3.87816 1.30082 7.04606 1.30082C10.214 1.30082 12.7913 3.87816 12.7913 7.04606C12.7913 10.214 10.214 12.7914 7.04606 12.7914Z" fill="#56AA36"/>
<path id="Vector_2" d="M15.8094 14.8897L12.0805 11.1608C11.8263 10.9066 11.4149 10.9066 11.1607 11.1608C10.9066 11.4146 10.9066 11.8265 11.1607 12.0805L14.8898 15.8094C15.0168 15.9365 15.1831 16 15.3496 16C15.5159 16 15.6824 15.9365 15.8094 15.8094C16.0636 15.5556 16.0636 15.1437 15.8094 14.8897Z" fill="#56AA36"/>
</g>
</g>
<defs>
<clipPath id="clip0_39_507">
<rect width="16" height="16" fill="white"/>
</clipPath>
</defs>
</svg>
