<svg width="17" height="16" viewBox="0 0 17 16" fill="none" xmlns="http://www.w3.org/2000/svg">
<g id="SVG">
<g id="Group">
<path id="Vector" d="M10.5187 10.5945C10.3833 10.5945 10.2479 10.7176 10.2479 11.13C10.2479 11.5423 10.3833 11.6655 10.5187 11.6655C10.6541 11.6655 10.7895 11.5423 10.7895 11.13C10.7895 10.7175 10.6541 10.5945 10.5187 10.5945Z" fill="#E42828"/>
<path id="Vector_2" d="M7.36133 8.56342C7.22593 8.56342 7.09053 8.68654 7.09053 9.09891C7.09053 9.51127 7.22593 9.63432 7.36133 9.63432C7.49673 9.63432 7.63213 9.51127 7.63213 9.09891C7.63213 8.68654 7.49673 8.56342 7.36133 8.56342Z" fill="#E42828"/>
<path id="Vector_3" d="M13.6249 5.67626C12.2684 4.17797 11.4623 2.85903 11.0247 2.01637C10.551 1.10367 10.3957 0.537694 10.3945 0.53319L10.2535 0L9.74975 0.224667C9.69091 0.250909 8.29928 0.885564 7.51947 2.4451C7.12803 3.22801 7.04974 4.09968 7.05302 4.69302C7.05494 5.03832 6.81028 5.33815 6.47132 5.40593C6.23368 5.45341 5.98921 5.37953 5.81769 5.20801L4.87945 4.26977L4.5567 4.71482C4.5232 4.76102 3.73444 5.84882 3.59084 6.06617C2.88963 7.12764 2.524 8.36415 2.53347 9.64196C2.54617 11.3487 3.21733 12.9476 4.4233 14.1444C5.6292 15.3409 7.23328 16 8.94 16C12.4727 16 15.3467 13.126 15.3467 9.59331C15.3467 8.31244 14.7192 6.88476 13.6249 5.67626ZM10.5187 12.3301C9.86633 12.3301 9.3739 11.8993 9.3739 11.13C9.3739 10.3668 9.86626 9.92975 10.5187 9.92975C11.1711 9.92975 11.6635 10.3668 11.6635 11.13C11.6635 11.8993 11.1711 12.3301 10.5187 12.3301ZM9.89091 7.96022H10.9311L7.9891 12.2686H6.94896L9.89091 7.96022ZM6.21657 9.09891C6.21657 8.33571 6.70894 7.89869 7.36136 7.89869C8.01378 7.89869 8.50619 8.33571 8.50619 9.09891C8.50619 9.86822 8.01378 10.2991 7.36136 10.2991C6.70894 10.2991 6.21657 9.86822 6.21657 9.09891Z" fill="#E42828"/>
</g>
</g>
</svg>
