<svg width="24" height="24" viewBox="0 0 24 24" fill="none" xmlns="http://www.w3.org/2000/svg">
<g id="Link &#226;&#134;&#146; SVG" clip-path="url(#clip0_39_445)">
<path id="Vector" d="M12 24C18.6274 24 24 18.6274 24 12C24 5.37258 18.6274 0 12 0C5.37258 0 0 5.37258 0 12C0 18.6274 5.37258 24 12 24Z" fill="#039BE5"/>
<path id="Vector_2" d="M5.49099 11.74L17.061 7.27902C17.598 7.08502 18.067 7.41002 17.893 8.22201L17.894 8.22105L15.924 17.502C15.778 18.16 15.387 18.32 14.84 18.01L11.84 15.799L10.393 17.193C10.233 17.353 10.098 17.488 9.788 17.488L10.001 14.435L15.561 9.41201C15.803 9.19905 15.507 9.07905 15.188 9.29105L8.31696 13.617L5.35499 12.693C4.71199 12.489 4.69799 12.05 5.49099 11.74Z" fill="white"/>
</g>
<defs>
<clipPath id="clip0_39_445">
<rect width="24" height="24" fill="white"/>
</clipPath>
</defs>
</svg>
