<svg width="24" height="24" viewBox="0 0 24 24" fill="none" xmlns="http://www.w3.org/2000/svg">
<g id="Link &#226;&#134;&#146; SVG" clip-path="url(#clip0_39_449)">
<g id="Group">
<path id="Vector" d="M23.1551 13.893C23.8711 7.86602 22.8111 4.06102 20.8991 2.34002L20.9 2.33902C17.814 -0.599975 7.39202 -1.03498 3.70002 2.47102C2.04202 4.18602 1.45802 6.70302 1.39402 9.81906C1.33002 12.936 1.25402 18.7751 6.69502 20.359H6.70002L6.69502 22.778C6.69502 22.778 6.65802 23.758 7.28402 23.9551C8.00001 24.1871 8.32401 23.732 10.5511 21.072C14.2751 21.3951 17.1351 20.6551 17.46 20.5471C18.212 20.2951 22.4671 19.732 23.1551 13.893ZM10.918 19.37C10.918 19.37 8.56105 22.3091 7.82802 23.072C7.58802 23.32 7.32502 23.2971 7.32902 22.8051C7.32902 22.482 7.34702 18.789 7.34702 18.789C2.73402 17.467 3.00602 12.4951 3.05602 9.89402C3.10602 7.29202 3.58202 5.16102 4.98602 3.72602C8.22505 0.689025 17.362 1.36802 19.69 3.55602C22.536 6.07902 21.5231 13.2071 21.5291 13.45C20.944 18.324 17.496 18.6331 16.862 18.844C16.5911 18.934 14.076 19.5811 10.918 19.37Z" fill="#8E24AA"/>
<path id="Vector_2" d="M12.222 4.297C11.837 4.297 11.837 4.897 12.222 4.902C15.209 4.925 17.669 7.007 17.696 10.826C17.696 11.229 18.286 11.224 18.281 10.821H18.28C18.248 6.706 15.562 4.32 12.222 4.297Z" fill="#8E24AA"/>
<path id="Vector_3" d="M16.151 10.193C16.142 10.591 16.731 10.6101 16.736 10.207C16.785 7.93804 15.386 6.06904 12.757 5.87204C12.372 5.84404 12.332 6.44904 12.716 6.47704C14.996 6.65004 16.197 8.20605 16.151 10.193Z" fill="#8E24AA"/>
<path id="Vector_4" d="M15.5211 12.774C15.0271 12.488 14.524 12.666 14.316 12.9471L13.8811 13.51C13.66 13.796 13.2471 13.758 13.2471 13.758C10.2331 12.9611 9.42705 9.80707 9.42705 9.80707C9.42705 9.80707 9.39002 9.38003 9.66602 9.15107L10.21 8.70107C10.482 8.48507 10.654 7.96504 10.3771 7.45404C9.63705 6.11704 9.14001 5.65604 8.88705 5.30204C8.62105 4.96904 8.22106 4.89404 7.80503 5.11904H7.79603C6.93103 5.62504 5.98403 6.57204 6.28703 7.54704C6.80403 8.57507 7.75403 11.852 10.782 14.328C12.2051 15.4991 14.4571 16.6991 15.4131 16.976L15.422 16.99C16.364 17.304 17.28 16.32 17.7691 15.4291V15.422C17.986 14.9911 17.914 14.5831 17.5971 14.316C17.0351 13.768 16.1871 13.1631 15.5211 12.774Z" fill="#8E24AA"/>
<path id="Vector_5" d="M13.1691 8.10402C14.13 8.16002 14.596 8.66202 14.646 9.69298C14.664 10.096 15.2491 10.068 15.2311 9.66497C15.1671 8.31897 14.4651 7.56899 13.2011 7.49899C12.816 7.47599 12.78 8.08098 13.1691 8.10402Z" fill="#8E24AA"/>
</g>
</g>
<defs>
<clipPath id="clip0_39_449">
<rect width="24" height="24" fill="white"/>
</clipPath>
</defs>
</svg>
