<svg width="24" height="24" viewBox="0 0 24 24" fill="none" xmlns="http://www.w3.org/2000/svg">
<g id="SVG" clip-path="url(#clip0_39_441)">
<path id="Vector" d="M12.003 0H11.997C5.3805 0 0 5.382 0 12C0 14.625 0.846 17.058 2.2845 19.0335L0.789 23.4915L5.4015 22.017C7.299 23.274 9.56248 24 12.003 24C18.6195 24 24 18.6165 24 12C24 5.3835 18.6195 0 12.003 0Z" fill="#56AA36"/>
<path id="Vector_2" d="M18.9854 16.9455C18.696 17.7631 17.547 18.4411 16.6305 18.639C16.0034 18.7725 15.1845 18.8791 12.4274 17.736C8.90097 16.2751 6.62998 12.6915 6.45299 12.4591C6.28349 12.2265 5.02798 10.5615 5.02798 8.83954C5.02798 7.11753 5.90249 6.27902 6.25498 5.91902C6.54449 5.62353 7.02299 5.48853 7.48199 5.48853C7.63049 5.48853 7.76398 5.49602 7.88398 5.50202C8.23649 5.51702 8.41345 5.53802 8.64601 6.09453C8.93545 6.79202 9.64049 8.51402 9.72449 8.69106C9.81001 8.86802 9.89545 9.10802 9.77545 9.3405C9.66297 9.5805 9.56401 9.68706 9.38697 9.89106C9.21001 10.0951 9.04201 10.2511 8.86497 10.47C8.70297 10.6605 8.52001 10.8645 8.72401 11.2171C8.92801 11.562 9.63297 12.7125 10.671 13.6365C12.0105 14.8291 13.0965 15.21 13.485 15.372C13.7745 15.492 14.1194 15.4635 14.331 15.2385C14.5994 14.9491 14.931 14.4691 15.2685 13.9965C15.5085 13.6575 15.8115 13.6155 16.1294 13.7355C16.4534 13.848 18.168 14.6955 18.5205 14.871C18.873 15.048 19.1054 15.132 19.191 15.2805C19.275 15.4291 19.275 16.1265 18.9854 16.9455Z" fill="#FAFAFA"/>
</g>
<defs>
<clipPath id="clip0_39_441">
<rect width="24" height="24" fill="white"/>
</clipPath>
</defs>
</svg>
